# xmcd
#
# Track frame offsets:
#	150
#	17415
#	31130
#	45607
#	57607
#	71217
#	84902
#	105357
#	119915
#	133485
#	152115
#
# Disc length: 2213 seconds
#
# Revision: 1
# Processed by: cddbd v1.5.2PL0 Copyright (c) Steve Scherf et al.
# Submitted via: audiograbber 1.83.01
#
DISCID=9708a30b
DTITLE=REGINALDO ROSSI - SÓ SEI QUE TE QUERO BEM
DYEAR=1900
DGENRE=BREGA
TTITLE0=SÓ SEI QUE TE QUERO BEM
TTITLE1=TODA QUEMTE
TTITLE2=EU DEVIA TE ODIAR
TTITLE3=MINA JEZEBEL
TTITLE4=VOCÊ NÃO SOUBE DAR VALOR
TTITLE5=NASCI PARA TE ADORAR
TTITLE6=ITAMARACÁ(PEDRA QUE CANTA)
TTITLE7=NÃO ESTÁ SENDO FÁCIL VIVER SEM VOCÊ
TTITLE8=O PÃO
TTITLE9=TRISTEZA E SOLIDÃO
TTITLE10=NAMORADINHA DE UM AMIGO MEU
EXTD=
EXTT0=
EXTT1=
EXTT2=
EXTT3=
EXTT4=
EXTT5=
EXTT6=
EXTT7=
EXTT8=
EXTT9=
EXTT10=
PLAYORDER=
